<svg xmlns="http://www.w3.org/2000/svg" fill="none" viewBox="-.03 0 51.5 63"><path d="m31.1265 0 7.0585 2.08286-1.7485 5.74714-2.07 7.2386-14.0786 47.9314-7.0457-2.0829 1.6971-5.7728 2.1343-7.2257z" fill="#6846f5"></path><g fill="#131c29"><path d="m34.3657 15.0667c3.127 1.7105 5.7003 4.2787 7.4169 7.4023 1.7167 3.1236 2.5052 6.6727 2.2729 10.2293-.2323 3.5567-1.4759 6.973-3.5843 9.8467-2.1085 2.8738-4.994 5.0854-8.3169 6.3746l-2.4043 8.2928c5.4758-.9442 10.508-3.6098 14.3654-7.6094s6.3391-9.1249 7.0846-14.6314c.7454-5.5064-.2842-11.1071-2.9393-15.9884-2.6551-4.8812-6.7973-8.7888-11.825-11.15508 0 0-2.0957 7.23858-2.07 7.23858z"></path><path d="m7.35422 31.4994c-.01015-3.7724 1.12678-7.4588 3.25998-10.5702s5.1619-5.5007 8.6843-6.8512l2.4043-8.29284c-5.4722.93999-10.5027 3.59894-14.36161 7.59114-3.85893 3.9922-6.345613 9.11-7.09933 14.611-.753716 5.501.264739 11.099 2.90762 15.9821 2.64288 4.883 6.77274 8.7971 11.79042 11.1743 0 0 2.1472-7.2257 2.1343-7.2257-2.9488-1.6074-5.4086-3.9816-7.11956-6.8716-1.71092-2.89-2.60937-6.1885-2.60042-9.547z"></path></g></svg>